PathFileType	4	(X/Y/Z)	D:\Share\Shared_Data\Ergonomics\Sit To Stand Pertubation\S0\Free STS.trc
DataRate	CameraRate	NumFrames	NumMarkers	Units	OrigDataRate	OrigDataStartFrame	OrigNumFrames	
100	100	8	18	m	100	3369	211
Frame#	Time	R_Toe			R_ASIS			R_Pelvis			V_Sacral			L_Pelvis			L_ASIS			Clavical			R_Acromium			L_Acromium			Sternum			Torso			R_Thigh_Med			R_Thigh_Lat			R_Thigh			R_Shank_Med			R_Shank_Lat			R_Shank			R_Heel			
		X1	Y1	Z1	X2	Y2	Z2	X3	Y3	Z3	X4	Y4	Z4	X5	Y5	Z5	X6	Y6	Z6	X7	Y7	Z7	X8	Y8	Z8	X9	Y9	Z9	X10	Y10	Z10	X11	Y11	Z11	X12	Y12	Z12	X13	Y13	Z13	X14	Y14	Z14	X15	Y15	Z15	X16	Y16	Z16	X17	Y17	Z17	X18	Y18	Z18	

3369	20.11	0.3791066	0.045166584	0.13958847	0.20923883	0.87986157	0.15661455	0.1027965	0.94563367	0.20462764	-0.022297523	0.97370636	-0.025348398	0.1126265	0.92160107	-0.20814529	0.21567725	0.86078424	-0.15502513	0.4545206	1.1959004	-0.012772045	0.41598703	1.2894893	0.12182158	0.40483078	1.2990715	-0.15527882	0.43146637	1.1022029	-0.030813713	0.43298294	1.1568531	-0.13292717	0.35414102	0.47772025	0.063337559	0.34988586	0.50011145	0.19591278	0.35949057	0.65177753	0.12216784	0.25685693	0.097953003	0.10389548	0.20062747	0.090150002	0.19460262	0.27916681	0.30774518	0.21195825	0.15548575	0.046708157	0.15105905
3370	20.12	0.37914117	0.045122669	0.13960219	0.21226099	0.88334442	0.15677019	0.10576939	0.94877478	0.20472804	-0.019144444	0.97662317	-0.025352596	0.1157831	0.92497595	-0.20819507	0.2186834	0.86424982	-0.15495377	0.45456137	1.203558	-0.012935466	0.41515439	1.2966389	0.12195551	0.40387769	1.306155	-0.15543594	0.43266263	1.1095154	-0.030772072	0.43359592	1.1641707	-0.13322606	0.35420618	0.47776401	0.063182518	0.34992133	0.50012869	0.19569817	0.36113763	0.65178534	0.12236304	0.25680563	0.09791642	0.10382401	0.20059744	0.09012674	0.19453108	0.27911932	0.30774963	0.21186887	0.15545641	0.046658592	0.15101453
3371	20.13	0.37917505	0.045074986	0.13961636	0.21529732	0.88686017	0.15692834	0.10873574	0.95187689	0.2048082	-0.015991031	0.97950586	-0.025362532	0.11896236	0.92833563	-0.20823454	0.2218045	0.86776324	-0.15488466	0.45449341	1.2111997	-0.013104033	0.41423083	1.3037584	0.12211247	0.40284628	1.3132053	-0.15559502	0.43378915	1.1168185	-0.030734858	0.43410483	1.1714677	-0.13352045	0.35417273	0.47780954	0.063012272	0.34990021	0.50016486	0.19545255	0.36272256	0.6517912	0.12252613	0.25674783	0.097882286	0.10374811	0.20056168	0.090104424	0.19445706	0.27903821	0.30776523	0.21177072	0.15542741	0.046607662	0.15096899
3372	20.14	0.37920959	0.045021759	0.13963013	0.21835773	0.89040881	0.15708122	0.11169736	0.95493738	0.20486354	-0.01283729	0.98235059	-0.025376337	0.12216286	0.93167389	-0.20826601	0.22502646	0.87131689	-0.15482002	0.45431653	1.2188138	-0.01327747	0.41321954	1.3108381	0.12229037	0.40173828	1.3202175	-0.15575534	0.4348494	1.1241011	-0.030702341	0.43449976	1.1787363	-0.13380881	0.35405374	0.47786166	0.062829269	0.34982593	0.50022363	0.19517921	0.36424738	0.65179681	0.12265053	0.25668561	0.097851242	0.10366844	0.20052144	0.090085442	0.19438113	0.27892245	0.30779453	0.2116622	0.15540063	0.046558563	0.15092293
3373	20.15	0.3792464	0.044962486	0.13964352	0.22144804	0.89398438	0.15722324	0.11465795	0.95795117	0.20489233	-0.0096836586	0.9851532	-0.025392723	0.12538166	0.93498438	-0.20829268	0.2283324	0.87490338	-0.15476337	0.45403235	1.2263899	-0.013453308	0.41212277	1.3178711	0.1224875	0.40055365	1.3271858	-0.15591544	0.43584473	1.1313535	-0.030674263	0.43477573	1.1859683	-0.13408714	0.35386151	0.47792523	0.06263522	0.34970053	0.50030881	0.19488469	0.36571454	0.65180396	0.12273075	0.25662061	0.097823593	0.1035859	0.2004776	0.090071831	0.19430363	0.27876962	0.30783997	0.21154271	0.15537769	0.046513973	0.15087616
3374	20.16	0.37928644	0.044897968	0.13965771	0.22456709	0.89758148	0.15735069	0.11762286	0.96091217	0.2048954	-0.0065311408	0.98790906	-0.025410872	0.12861508	0.93826166	-0.20831706	0.23170003	0.87851434	-0.15471915	0.4536463	1.2339182	-0.013626576	0.41094217	1.3248513	0.12270273	0.39929196	1.3341046	-0.15607309	0.43677423	1.1385671	-0.030650003	0.43493286	1.1931559	-0.13434938	0.35360861	0.47800552	0.062431175	0.34952469	0.50042307	0.19457539	0.36712756	0.65181384	0.1227634	0.25655362	0.097799461	0.10350183	0.20043065	0.090065086	0.19422496	0.27857666	0.30790323	0.21141306	0.1553597	0.046475891	0.15082851
3375	20.17	0.37932974	0.044829788	0.13967476	0.22771184	0.9011969	0.15746034	0.12059628	0.9638175	0.20487387	-0.0033812218	0.99061322	-0.025430527	0.13185928	0.94150159	-0.20834097	0.23510188	0.88214185	-0.15469217	0.45316824	1.2413909	-0.013789934	0.40967899	1.3317745	0.12293552	0.39795319	1.3409694	-0.15622571	0.43763544	1.1457356	-0.030628862	0.43497772	1.2002931	-0.13458876	0.35330646	0.47810712	0.06221804	0.34929688	0.50056757	0.19425626	0.36849072	0.65182703	0.12274804	0.2564848	0.097779053	0.10341815	0.20038083	0.090065956	0.19414563	0.27834113	0.30798523	0.21127498	0.15534717	0.046445564	0.15078003
3376	20.18	0.37937579	0.044759701	0.13969716	0.23088426	0.90482782	0.15754999	0.12357905	0.96667029	0.2048284	-0.00023569256	0.99325989	-0.025452066	0.1351104	0.94470074	-0.20836588	0.23851308	0.8857796	-0.15468629	0.4526127	1.2488009	-0.013934325	0.40833475	1.338637	0.12318573	0.3965376	1.3477739	-0.15637071	0.43842566	1.1528547	-0.030610388	0.43492453	1.207376	-0.13479996	0.35296448	0.47823334	0.061997307	0.3490134	0.50074207	0.1939314	0.36980743	0.65184265	0.12268782	0.25641403	0.097762817	0.10333685	0.20032863	0.090074379	0.19406636	0.27806104	0.30808603	0.21113077	0.15534029	0.046423519	0.150731
